PathFileType	4	(X/Y/Z)	c:/Users/goper/Files/vsCode/490R/osim_files/C04/C04_Fast_04.trc
DataRate	CameraRate	NumFrames	NumMarkers	Units                	OrigDataRate	OrigDataStartFrame	OrigNumFrames
250.00	250.00	4	36	mm	250.0	1562	3122
                Frame#	Time	LPSIS			LASIS			LTH1			LTH2			LTH3			LTH4			LLFE			LMFE			LSH1			LSH2			LSH3			LSH4			LLMAL			LMMAL			LCAL			LMTP5			LTOE			LMTP1			RPSIS			RASIS			RTH1			RTH2			RTH3			RTH4			RLFE			RMFE			RSH1			RSH2			RSH3			RSH4			RLMAL			RMMAL			RCAL			RMTP1			RTOE			RMTP5		
		X1	Y1	Z1	X2	Y2	Z2	X3	Y3	Z3	X4	Y4	Z4	X5	Y5	Z5	X6	Y6	Z6	X7	Y7	Z7	X8	Y8	Z8	X9	Y9	Z9	X10	Y10	Z10	X11	Y11	Z11	X12	Y12	Z12	X13	Y13	Z13	X14	Y14	Z14	X15	Y15	Z15	X16	Y16	Z16	X17	Y17	Z17	X18	Y18	Z18	X19	Y19	Z19	X20	Y20	Z20	X21	Y21	Z21	X22	Y22	Z22	X23	Y23	Z23	X24	Y24	Z24	X25	Y25	Z25	X26	Y26	Z26	X27	Y27	Z27	X28	Y28	Z28	X29	Y29	Z29	X30	Y30	Z30	X31	Y31	Z31	X32	Y32	Z32	X33	Y33	Z33	X34	Y34	Z34	X35	Y35	Z35	X36	Y36	Z36

1562	6.24400	-0.44872	979.33490	241.63110	-163.47713	959.02936	324.54794	-89.13130	701.85297	376.16858	-114.11076	644.45599	365.14514	-146.75027	732.13818	385.84357	-181.73883	678.42249	373.91489	-215.78645	474.86578	351.16443	0.00000	0.00000	0.00000	-124.66750	434.01682	350.45273	-86.57781	405.07263	345.63025	-158.66869	396.60028	362.52499	-127.37147	362.75098	360.34912	31.73610	212.22939	245.41972	63.94973	210.31831	332.40021	119.68595	237.27309	271.17551	4.23875	75.02464	253.32625	-28.00984	76.49108	311.55414	15.39063	77.81525	357.77905	-5.26874	984.73950	166.62596	-180.19174	958.02875	113.42226	-93.18533	728.94415	29.66144	-96.69392	668.35651	43.86246	-156.74599	738.02032	42.00074	-169.81409	682.69769	55.35927	-155.60977	459.76236	103.67909	-131.50436	461.44016	213.56311	-81.85828	331.76154	81.30444	-80.48663	286.92117	88.18772	-142.31676	326.39487	96.65700	-132.74771	279.63345	99.71612	-67.06253	82.49869	122.44167	-60.82200	94.53976	213.57930	3.15618	54.57474	157.46402	-182.92809	30.67590	232.44261	-220.84059	47.52379	195.29469	-198.88918	20.95357	127.94474
1563	6.24800	-4.91190	979.97650	241.95628	-167.83977	959.54218	324.19220	-95.08807	702.76074	376.66754	-120.23161	645.56891	365.67828	-152.32658	733.57721	386.28995	-185.55403	681.13312	375.53201	-223.80086	476.94028	351.13434	0.00000	0.00000	0.00000	-132.82008	434.87646	349.57730	-95.46375	405.29138	344.71698	-167.53627	398.09616	362.29932	-136.33333	364.07443	360.43390	18.76451	209.60745	245.20129	51.25064	207.14006	331.99951	107.43912	232.18176	270.47067	-12.56582	73.25600	253.82877	-44.57869	75.99906	312.19342	-0.70611	76.38813	358.30551	-9.51761	985.26465	166.96260	-184.22736	958.37567	112.98752	-95.93604	729.35132	29.76526	-99.19822	668.69788	44.05850	-159.45532	738.32336	41.88846	-172.36801	682.84686	55.27922	-156.78436	460.11899	103.32519	-132.79750	461.73645	213.50586	-82.51585	332.10715	81.28275	-81.79433	287.01428	88.70551	-142.97318	326.55093	96.52978	-133.19606	279.86914	99.55456	-67.20743	82.67451	122.47987	-60.78859	94.83962	213.50951	3.05593	54.81556	157.47865	-183.03723	30.61912	232.24158	-221.39868	47.23717	195.77373	-198.67426	21.27441	127.60838
1564	6.25200	-9.29883	980.56317	242.28328	-172.42361	960.28705	323.89270	-101.50934	703.45667	376.92194	-126.47072	646.55811	366.32608	-157.98296	734.88818	386.71658	-189.54466	683.70435	377.01480	-231.74106	479.05225	351.16077	0.00000	0.00000	0.00000	-141.09380	435.50046	348.82089	-104.28044	405.26028	343.96396	-176.38573	399.53238	362.10345	-145.34683	365.32465	360.50412	5.67948	206.86606	244.97781	38.51823	203.87885	331.64957	94.89044	226.88652	269.71381	-29.35339	71.52908	254.29633	-61.24543	75.49202	312.79419	-17.24457	74.66044	358.69336	-13.70813	985.80768	167.27585	-188.32272	958.58038	112.78495	-98.56171	729.79651	29.91311	-101.76377	669.15369	44.34478	-162.15063	738.61945	41.78588	-174.96404	683.26965	55.16837	-157.91962	460.08035	103.33166	-134.18021	461.96567	213.42267	-83.16859	332.42529	81.25678	-82.28725	287.40952	88.62059	-143.68489	326.68161	96.43611	-134.03598	279.91153	99.65665	-67.35220	82.85044	122.48562	-60.95170	95.01094	213.54164	2.95962	55.15787	157.50740	-183.05296	30.75477	231.98111	-221.45224	47.38956	195.60222	-198.95294	20.85311	127.93671
1565	6.25600	-13.72093	981.09662	242.62360	-177.14140	960.90942	323.50891	-107.35033	704.28546	377.48254	-132.57883	647.66815	367.08804	-163.60388	736.21759	387.12866	-194.34041	685.88013	378.07770	-239.63708	481.03668	351.19159	0.00000	0.00000	0.00000	-149.32417	436.05634	348.12109	-113.05167	405.09222	343.21094	-185.06035	400.78159	361.96970	-154.19243	366.45215	360.62253	-6.11435	204.63766	244.36827	25.47999	200.34004	331.34076	82.49452	221.66086	269.07162	-46.20300	69.82016	254.73840	-77.96223	74.94725	313.46002	-33.87167	72.96459	359.06018	-17.92005	986.26831	167.56119	-192.22948	958.91901	112.20629	-101.34805	730.27551	30.13282	-104.14573	669.56726	44.60629	-164.83493	738.90668	41.69368	-177.44286	683.25867	55.09938	-159.26657	460.30438	103.00446	-135.58116	462.19772	213.34999	-83.84713	332.78378	81.16285	-82.10921	287.98193	88.02325	-144.43806	326.79337	96.36763	-134.55249	280.11252	99.48483	-67.48562	83.01627	122.49702	-61.07191	95.13909	213.59219	2.86126	55.52356	157.54353	-183.39474	31.20938	232.55164	-221.30289	47.55233	194.71762	-198.75879	21.16564	127.55773
